# xmcd
#
# Track frame offsets: 
#        150
#        11236
#        32877
#        49291
#        65154
#        76731
#        91186
#        109033
#        124430
#        138023
#        154383
#        180917
#        196667
#
# Disc length: 2898 seconds
#
# Revision: 0
# Processed by: cddbd v1.5.2PL0 Copyright (c) Steve Scherf et al.
# Submitted via: ExactAudioCopy v1.0b6
#
DISCID=a90b500d
DTITLE=Chris Yeaton - ho'o pa'a
DYEAR=2005
DGENRE=Folk
TTITLE0=Puka Pants
TTITLE1=Makee " Ailana
TTITLE2=Cape Arago
TTITLE3=Ka'u
TTITLE4=Special Love in You
TTITLE5=Saturday Morning
TTITLE6=Aloha 'o Kona
TTITLE7=Beautiful in Blue
TTITLE8=Duignan's Road
TTITLE9=Garins Ballbarins
TTITLE10=Ho'o Pa'a (The Stand)
TTITLE11=The Beautiful Granddaughter
TTITLE12=Lele ma luna o ka 'alina hou (Over a new land)
EXTD=
EXTT0=
EXTT1=
EXTT2=
EXTT3=
EXTT4=
EXTT5=
EXTT6=
EXTT7=
EXTT8=
EXTT9=
EXTT10=
EXTT11=
EXTT12=
PLAYORDER=
